<?xml version="1.0" encoding="UTF-8"?>
<svg xmlns="http://www.w3.org/2000/svg" viewBox="0 0 400 400" width="400" height="400">
  <rect width="400" height="400" fill="#0d1b2a"/>
  <defs>
    <radialGradient id="glow-concept-svatantrya" cx="50%" cy="50%"><stop offset="0%" stop-color="#1a237e" stop-opacity="0.15"/><stop offset="100%" stop-color="#0d1b2a" stop-opacity="0"/></radialGradient>
  </defs>
  <g>
    <circle cx="200" cy="200" r="180" fill="url(#glow-concept-svatantrya)"/>
    <circle cx="200" cy="200" r="130" fill="none" stroke="#3949ab" stroke-width="1.5" opacity="0.2"/>
    <line x1="220" y1="200" x2="330" y2="200" stroke="#1a237e" stroke-width="0.8" opacity="0.3"/><line x1="219.31851652578138" y1="205.17638090205043" x2="325.57035741757886" y2="233.64647586332768" stroke="#1a237e" stroke-width="0.8" opacity="0.3"/><line x1="217.32050807568876" y1="210" x2="312.58330249197707" y2="265" stroke="#1a237e" stroke-width="0.8" opacity="0.3"/><line x1="214.14213562373095" y1="214.14213562373095" x2="291.9238815542512" y2="291.9238815542512" stroke="#1a237e" stroke-width="0.8" opacity="0.3"/><line x1="210" y1="217.32050807568876" x2="265" y2="312.583302491977" stroke="#1a237e" stroke-width="0.8" opacity="0.3"/><line x1="205.17638090205043" y1="219.31851652578138" x2="233.64647586332768" y2="325.57035741757886" stroke="#1a237e" stroke-width="0.8" opacity="0.3"/><line x1="200" y1="220" x2="200" y2="330" stroke="#1a237e" stroke-width="0.8" opacity="0.3"/><line x1="194.82361909794957" y1="219.31851652578138" x2="166.3535241366723" y2="325.57035741757886" stroke="#1a237e" stroke-width="0.8" opacity="0.3"/><line x1="190" y1="217.32050807568876" x2="135.00000000000003" y2="312.58330249197707" stroke="#1a237e" stroke-width="0.8" opacity="0.3"/><line x1="185.85786437626905" y1="214.14213562373095" x2="108.07611844574883" y2="291.9238815542512" stroke="#1a237e" stroke-width="0.8" opacity="0.3"/><line x1="182.67949192431124" y1="210" x2="87.41669750802296" y2="265" stroke="#1a237e" stroke-width="0.8" opacity="0.3"/><line x1="180.68148347421862" y1="205.17638090205043" x2="74.42964258242114" y2="233.64647586332774" stroke="#1a237e" stroke-width="0.8" opacity="0.3"/><line x1="180" y1="200" x2="70" y2="200.00000000000003" stroke="#1a237e" stroke-width="0.8" opacity="0.3"/><line x1="180.68148347421862" y1="194.8236190979496" x2="74.42964258242111" y2="166.35352413667235" stroke="#1a237e" stroke-width="0.8" opacity="0.3"/><line x1="182.67949192431124" y1="190" x2="87.41669750802298" y2="135" stroke="#1a237e" stroke-width="0.8" opacity="0.3"/><line x1="185.85786437626905" y1="185.85786437626905" x2="108.0761184457488" y2="108.07611844574883" stroke="#1a237e" stroke-width="0.8" opacity="0.3"/><line x1="190" y1="182.67949192431124" x2="134.99999999999994" y2="87.41669750802299" stroke="#1a237e" stroke-width="0.8" opacity="0.3"/><line x1="194.82361909794957" y1="180.68148347421862" x2="166.35352413667232" y2="74.42964258242112" stroke="#1a237e" stroke-width="0.8" opacity="0.3"/><line x1="200" y1="180" x2="199.99999999999997" y2="70" stroke="#1a237e" stroke-width="0.8" opacity="0.3"/><line x1="205.1763809020504" y1="180.68148347421862" x2="233.64647586332762" y2="74.42964258242111" stroke="#1a237e" stroke-width="0.8" opacity="0.3"/><line x1="210" y1="182.67949192431124" x2="265" y2="87.41669750802298" stroke="#1a237e" stroke-width="0.8" opacity="0.3"/><line x1="214.14213562373095" y1="185.85786437626905" x2="291.9238815542511" y2="108.0761184457488" stroke="#1a237e" stroke-width="0.8" opacity="0.3"/><line x1="217.32050807568876" y1="190" x2="312.583302491977" y2="134.99999999999994" stroke="#1a237e" stroke-width="0.8" opacity="0.3"/><line x1="219.31851652578138" y1="194.82361909794957" x2="325.57035741757886" y2="166.35352413667232" stroke="#1a237e" stroke-width="0.8" opacity="0.3"/>
    <circle cx="200" cy="200" r="60" fill="none" stroke="#3949ab" stroke-width="1.5" opacity="0.5"/>
    <circle cx="200" cy="200" r="8" fill="#ffffff" opacity="0.9"/>
  </g>
</svg>