<?xml version="1.0" encoding="UTF-8"?>
<svg xmlns="http://www.w3.org/2000/svg" viewBox="0 0 400 400" width="400" height="400">
  <rect width="400" height="400" fill="#0d1b2a"/>
  <defs>
    <radialGradient id="glow-realm-coverings" cx="50%" cy="50%"><stop offset="0%" stop-color="#1a237e" stop-opacity="0.15"/><stop offset="100%" stop-color="#0d1b2a" stop-opacity="0"/></radialGradient>
  </defs>
  <g>
    <circle cx="200" cy="200" r="180" fill="url(#glow-realm-coverings)"/>
    <rect x="120" y="120" width="160" height="160" fill="none" stroke="#3949ab" stroke-width="1.5" opacity="0.2" transform="rotate(45 200 200)"/>
    <circle cx="200" cy="200" r="100" fill="none" stroke="#1a237e" stroke-width="1.5" opacity="0.4"/>
    <ellipse cx="200" cy="158" rx="12.6" ry="31.5" fill="none" stroke="#3949ab" stroke-width="1" opacity="0.3" transform="rotate(0 200 200)"/><ellipse cx="200" cy="158" rx="12.6" ry="31.5" fill="none" stroke="#3949ab" stroke-width="1" opacity="0.3" transform="rotate(60 200 200)"/><ellipse cx="200" cy="158" rx="12.6" ry="31.5" fill="none" stroke="#3949ab" stroke-width="1" opacity="0.3" transform="rotate(120 200 200)"/><ellipse cx="200" cy="158" rx="12.6" ry="31.5" fill="none" stroke="#3949ab" stroke-width="1" opacity="0.3" transform="rotate(180 200 200)"/><ellipse cx="200" cy="158" rx="12.6" ry="31.5" fill="none" stroke="#3949ab" stroke-width="1" opacity="0.3" transform="rotate(240 200 200)"/><ellipse cx="200" cy="158" rx="12.6" ry="31.5" fill="none" stroke="#3949ab" stroke-width="1" opacity="0.3" transform="rotate(300 200 200)"/>
    <circle cx="200" cy="200" r="5" fill="#1a237e" opacity="0.9"/>
  </g>
</svg>