<?xml version="1.0" encoding="UTF-8"?>
<svg xmlns="http://www.w3.org/2000/svg" viewBox="0 0 400 400" width="400" height="400">
  <rect width="400" height="400" fill="#0d1b2a"/>
  <defs>
    <radialGradient id="glow-shakti-cit" cx="50%" cy="50%"><stop offset="0%" stop-color="#1a237e" stop-opacity="0.15"/><stop offset="100%" stop-color="#0d1b2a" stop-opacity="0"/></radialGradient>
  </defs>
  <g>
    <circle cx="200" cy="200" r="180" fill="url(#glow-shakti-cit)"/>
    <circle cx="200" cy="200" r="120" fill="none" stroke="#3949ab" stroke-width="1.5" opacity="0.3"/>
    <circle cx="200" cy="200" r="80" fill="none" stroke="#1a237e" stroke-width="1.5" opacity="0.5"/>
    <circle cx="200" cy="200" r="8" fill="#1a237e" opacity="0.9"/>
    <line x1="215" y1="200" x2="270" y2="200" stroke="#3949ab" stroke-width="0.8" opacity="0.3"/><line x1="213.8581929876693" y1="205.74025148547634" x2="264.67156727579004" y2="226.78784026555627" stroke="#3949ab" stroke-width="0.8" opacity="0.3"/><line x1="210.6066017177982" y1="210.6066017177982" x2="249.49747468305833" y2="249.49747468305833" stroke="#3949ab" stroke-width="0.8" opacity="0.3"/><line x1="205.74025148547634" y1="213.8581929876693" x2="226.7878402655563" y2="264.67156727579004" stroke="#3949ab" stroke-width="0.8" opacity="0.3"/><line x1="200" y1="215" x2="200" y2="270" stroke="#3949ab" stroke-width="0.8" opacity="0.3"/><line x1="194.25974851452366" y1="213.8581929876693" x2="173.21215973444373" y2="264.67156727579004" stroke="#3949ab" stroke-width="0.8" opacity="0.3"/><line x1="189.3933982822018" y1="210.6066017177982" x2="150.50252531694167" y2="249.49747468305833" stroke="#3949ab" stroke-width="0.8" opacity="0.3"/><line x1="186.1418070123307" y1="205.74025148547634" x2="135.32843272420993" y2="226.7878402655563" stroke="#3949ab" stroke-width="0.8" opacity="0.3"/><line x1="185" y1="200" x2="130" y2="200" stroke="#3949ab" stroke-width="0.8" opacity="0.3"/><line x1="186.1418070123307" y1="194.25974851452366" x2="135.3284327242099" y2="173.21215973444373" stroke="#3949ab" stroke-width="0.8" opacity="0.3"/><line x1="189.3933982822018" y1="189.3933982822018" x2="150.50252531694167" y2="150.50252531694167" stroke="#3949ab" stroke-width="0.8" opacity="0.3"/><line x1="194.25974851452364" y1="186.1418070123307" x2="173.21215973444367" y2="135.32843272420996" stroke="#3949ab" stroke-width="0.8" opacity="0.3"/><line x1="200" y1="185" x2="200" y2="130" stroke="#3949ab" stroke-width="0.8" opacity="0.3"/><line x1="205.74025148547636" y1="186.1418070123307" x2="226.7878402655563" y2="135.32843272420993" stroke="#3949ab" stroke-width="0.8" opacity="0.3"/><line x1="210.6066017177982" y1="189.3933982822018" x2="249.49747468305833" y2="150.50252531694167" stroke="#3949ab" stroke-width="0.8" opacity="0.3"/><line x1="213.8581929876693" y1="194.25974851452364" x2="264.67156727579004" y2="173.21215973444367" stroke="#3949ab" stroke-width="0.8" opacity="0.3"/>
  </g>
</svg>