<?xml version="1.0" encoding="UTF-8"?>
<svg xmlns="http://www.w3.org/2000/svg" viewBox="0 0 400 400" width="400" height="400">
  <rect width="400" height="400" fill="#1a1a2e"/>
  <defs>
    <radialGradient id="glow-shakti-ananda" cx="50%" cy="50%"><stop offset="0%" stop-color="#b0bec5" stop-opacity="0.15"/><stop offset="100%" stop-color="#1a1a2e" stop-opacity="0"/></radialGradient>
  </defs>
  <g>
    <circle cx="200" cy="200" r="180" fill="url(#glow-shakti-ananda)"/>
    <circle cx="200" cy="200" r="120" fill="none" stroke="#cfd8dc" stroke-width="1.5" opacity="0.3"/>
    <circle cx="200" cy="200" r="80" fill="none" stroke="#b0bec5" stroke-width="1.5" opacity="0.5"/>
    <ellipse cx="200" cy="152" rx="14.399999999999999" ry="36" fill="none" stroke="#b0bec5" stroke-width="1" opacity="0.6" transform="rotate(0 200 200)"/><ellipse cx="200" cy="152" rx="14.399999999999999" ry="36" fill="none" stroke="#b0bec5" stroke-width="1" opacity="0.6" transform="rotate(45 200 200)"/><ellipse cx="200" cy="152" rx="14.399999999999999" ry="36" fill="none" stroke="#b0bec5" stroke-width="1" opacity="0.6" transform="rotate(90 200 200)"/><ellipse cx="200" cy="152" rx="14.399999999999999" ry="36" fill="none" stroke="#b0bec5" stroke-width="1" opacity="0.6" transform="rotate(135 200 200)"/><ellipse cx="200" cy="152" rx="14.399999999999999" ry="36" fill="none" stroke="#b0bec5" stroke-width="1" opacity="0.6" transform="rotate(180 200 200)"/><ellipse cx="200" cy="152" rx="14.399999999999999" ry="36" fill="none" stroke="#b0bec5" stroke-width="1" opacity="0.6" transform="rotate(225 200 200)"/><ellipse cx="200" cy="152" rx="14.399999999999999" ry="36" fill="none" stroke="#b0bec5" stroke-width="1" opacity="0.6" transform="rotate(270 200 200)"/><ellipse cx="200" cy="152" rx="14.399999999999999" ry="36" fill="none" stroke="#b0bec5" stroke-width="1" opacity="0.6" transform="rotate(315 200 200)"/>
    <circle cx="200" cy="200" r="6" fill="#b0bec5" opacity="0.9"/>
  </g>
</svg>