<?xml version="1.0" encoding="UTF-8"?>
<svg xmlns="http://www.w3.org/2000/svg" viewBox="0 0 400 400" width="400" height="400">
  <rect width="400" height="400" fill="#0d1a12"/>
  <defs>
    <radialGradient id="glow-shakti-jnana" cx="50%" cy="50%"><stop offset="0%" stop-color="#607d6b" stop-opacity="0.15"/><stop offset="100%" stop-color="#0d1a12" stop-opacity="0"/></radialGradient>
  </defs>
  <g>
    <circle cx="200" cy="200" r="180" fill="url(#glow-shakti-jnana)"/>
    <circle cx="200" cy="200" r="120" fill="none" stroke="#81a88d" stroke-width="1.5" opacity="0.3"/>
    <circle cx="200" cy="200" r="80" fill="none" stroke="#607d6b" stroke-width="1.5" opacity="0.5"/>
    <circle cx="200" cy="200" r="50" fill="none" stroke="#607d6b" stroke-width="1.5" opacity="0.7"/>
    <line x1="255" y1="200" x2="310" y2="200" stroke="#81a88d" stroke-width="0.8" opacity="0.25"/><line x1="247.63139720814414" y1="227.5" x2="295.2627944162883" y2="255" stroke="#81a88d" stroke-width="0.8" opacity="0.25"/><line x1="227.5" y1="247.6313972081441" x2="255" y2="295.2627944162882" stroke="#81a88d" stroke-width="0.8" opacity="0.25"/><line x1="200" y1="255" x2="200" y2="310" stroke="#81a88d" stroke-width="0.8" opacity="0.25"/><line x1="172.5" y1="247.63139720814414" x2="145.00000000000003" y2="295.2627944162883" stroke="#81a88d" stroke-width="0.8" opacity="0.25"/><line x1="152.36860279185586" y1="227.5" x2="104.73720558371174" y2="255" stroke="#81a88d" stroke-width="0.8" opacity="0.25"/><line x1="145" y1="200" x2="90" y2="200" stroke="#81a88d" stroke-width="0.8" opacity="0.25"/><line x1="152.3686027918559" y1="172.5" x2="104.73720558371176" y2="145" stroke="#81a88d" stroke-width="0.8" opacity="0.25"/><line x1="172.49999999999997" y1="152.3686027918559" x2="144.99999999999994" y2="104.73720558371177" stroke="#81a88d" stroke-width="0.8" opacity="0.25"/><line x1="200" y1="145" x2="199.99999999999997" y2="90" stroke="#81a88d" stroke-width="0.8" opacity="0.25"/><line x1="227.5" y1="152.3686027918559" x2="255" y2="104.73720558371176" stroke="#81a88d" stroke-width="0.8" opacity="0.25"/><line x1="247.6313972081441" y1="172.49999999999997" x2="295.2627944162882" y2="144.99999999999994" stroke="#81a88d" stroke-width="0.8" opacity="0.25"/>
  </g>
</svg>