<?xml version="1.0" encoding="UTF-8"?>
<svg xmlns="http://www.w3.org/2000/svg" viewBox="0 0 400 400" width="400" height="400">
  <rect width="400" height="400" fill="#0d1a12"/>
  <defs>
    <radialGradient id="glow-tattva-18" cx="50%" cy="50%"><stop offset="0%" stop-color="#607d6b" stop-opacity="0.15"/><stop offset="100%" stop-color="#0d1a12" stop-opacity="0"/></radialGradient>
  </defs>
  <g>
    <circle cx="200" cy="200" r="180" fill="url(#glow-tattva-18)"/>
    <circle cx="200" cy="200" r="130" fill="none" stroke="#81a88d" stroke-width="1.5" opacity="0.15"/>
    <circle cx="200" cy="200" r="90" fill="none" stroke="#607d6b" stroke-width="1.5" opacity="0.4"/>
    <line x1="230" y1="200" x2="285" y2="200" stroke="#81a88d" stroke-width="0.8" opacity="0.3"/><line x1="218.70469405576202" y1="223.4549444740409" x2="252.99663315799236" y2="266.45567600978256" stroke="#81a88d" stroke-width="0.8" opacity="0.3"/><line x1="193.32437198131058" y1="229.2478373654547" x2="181.08572061371328" y2="282.868872535455" stroke="#81a88d" stroke-width="0.8" opacity="0.3"/><line x1="172.97093396292743" y1="213.01651217352673" x2="123.41764622829439" y2="236.88011782499245" stroke="#81a88d" stroke-width="0.8" opacity="0.3"/><line x1="172.97093396292743" y1="186.98348782647327" x2="123.41764622829437" y2="163.11988217500758" stroke="#81a88d" stroke-width="0.8" opacity="0.3"/><line x1="193.32437198131055" y1="170.7521626345453" x2="181.08572061371325" y2="117.13112746454499" stroke="#81a88d" stroke-width="0.8" opacity="0.3"/><line x1="218.704694055762" y1="176.5450555259591" x2="252.99663315799233" y2="133.54432399021746" stroke="#81a88d" stroke-width="0.8" opacity="0.3"/>
    <ellipse cx="200" cy="170" rx="9" ry="22.5" fill="none" stroke="#607d6b" stroke-width="1" opacity="0.3" transform="rotate(0 200 200)"/><ellipse cx="200" cy="170" rx="9" ry="22.5" fill="none" stroke="#607d6b" stroke-width="1" opacity="0.3" transform="rotate(72 200 200)"/><ellipse cx="200" cy="170" rx="9" ry="22.5" fill="none" stroke="#607d6b" stroke-width="1" opacity="0.3" transform="rotate(144 200 200)"/><ellipse cx="200" cy="170" rx="9" ry="22.5" fill="none" stroke="#607d6b" stroke-width="1" opacity="0.3" transform="rotate(216 200 200)"/><ellipse cx="200" cy="170" rx="9" ry="22.5" fill="none" stroke="#607d6b" stroke-width="1" opacity="0.3" transform="rotate(288 200 200)"/>
    <circle cx="200" cy="200" r="4" fill="#81a88d" opacity="0.9"/>
  </g>
</svg>