<?xml version="1.0" encoding="UTF-8"?>
<svg xmlns="http://www.w3.org/2000/svg" viewBox="0 0 400 400" width="400" height="400">
  <rect width="400" height="400" fill="#0d1b2a"/>
  <defs>
    <radialGradient id="glow-tattva-17" cx="50%" cy="50%"><stop offset="0%" stop-color="#1a237e" stop-opacity="0.15"/><stop offset="100%" stop-color="#0d1b2a" stop-opacity="0"/></radialGradient>
  </defs>
  <g>
    <circle cx="200" cy="200" r="180" fill="url(#glow-tattva-17)"/>
    <circle cx="200" cy="200" r="130" fill="none" stroke="#3949ab" stroke-width="1.5" opacity="0.15"/>
    <circle cx="200" cy="200" r="90" fill="none" stroke="#1a237e" stroke-width="1.5" opacity="0.4"/>
    <line x1="230" y1="200" x2="285" y2="200" stroke="#3949ab" stroke-width="0.8" opacity="0.3"/><line x1="209.27050983124843" y1="228.5316954888546" x2="226.26644452187054" y2="280.83980388508803" stroke="#3949ab" stroke-width="0.8" opacity="0.3"/><line x1="175.72949016875157" y1="217.6335575687742" x2="131.23355547812946" y2="249.96174644486024" stroke="#3949ab" stroke-width="0.8" opacity="0.3"/><line x1="175.72949016875157" y1="182.3664424312258" x2="131.23355547812946" y2="150.0382535551398" stroke="#3949ab" stroke-width="0.8" opacity="0.3"/><line x1="209.2705098312484" y1="171.4683045111454" x2="226.2664445218705" y2="119.16019611491194" stroke="#3949ab" stroke-width="0.8" opacity="0.3"/>
    <ellipse cx="200" cy="170" rx="9" ry="22.5" fill="none" stroke="#1a237e" stroke-width="1" opacity="0.3" transform="rotate(0 200 200)"/><ellipse cx="200" cy="170" rx="9" ry="22.5" fill="none" stroke="#1a237e" stroke-width="1" opacity="0.3" transform="rotate(72 200 200)"/><ellipse cx="200" cy="170" rx="9" ry="22.5" fill="none" stroke="#1a237e" stroke-width="1" opacity="0.3" transform="rotate(144 200 200)"/><ellipse cx="200" cy="170" rx="9" ry="22.5" fill="none" stroke="#1a237e" stroke-width="1" opacity="0.3" transform="rotate(216 200 200)"/><ellipse cx="200" cy="170" rx="9" ry="22.5" fill="none" stroke="#1a237e" stroke-width="1" opacity="0.3" transform="rotate(288 200 200)"/>
    <circle cx="200" cy="200" r="4" fill="#3949ab" opacity="0.9"/>
  </g>
</svg>