<?xml version="1.0" encoding="UTF-8"?>
<svg xmlns="http://www.w3.org/2000/svg" viewBox="0 0 400 400" width="400" height="400">
  <rect width="400" height="400" fill="#1a0a0a"/>
  <defs>
    <radialGradient id="glow-tattva-19" cx="50%" cy="50%"><stop offset="0%" stop-color="#c62828" stop-opacity="0.15"/><stop offset="100%" stop-color="#1a0a0a" stop-opacity="0"/></radialGradient>
  </defs>
  <g>
    <circle cx="200" cy="200" r="180" fill="url(#glow-tattva-19)"/>
    <circle cx="200" cy="200" r="130" fill="none" stroke="#ef5350" stroke-width="1.5" opacity="0.15"/>
    <circle cx="200" cy="200" r="90" fill="none" stroke="#c62828" stroke-width="1.5" opacity="0.4"/>
    <line x1="230" y1="200" x2="285" y2="200" stroke="#ef5350" stroke-width="0.8" opacity="0.3"/><line x1="222.98133329356935" y1="219.28362829059617" x2="265.11377766511316" y2="254.63694682335583" stroke="#ef5350" stroke-width="0.8" opacity="0.3"/><line x1="205.20944533000792" y1="229.54423259036625" x2="214.76009510168907" y2="283.7086590060377" stroke="#ef5350" stroke-width="0.8" opacity="0.3"/><line x1="185" y1="225.98076211353316" x2="157.50000000000003" y2="273.61215932167727" stroke="#ef5350" stroke-width="0.8" opacity="0.3"/><line x1="171.80922137642276" y1="210.26060429977008" x2="120.12612723319779" y2="229.07171218268186" stroke="#ef5350" stroke-width="0.8" opacity="0.3"/><line x1="171.80922137642276" y1="189.73939570022995" x2="120.12612723319778" y2="170.92828781731816" stroke="#ef5350" stroke-width="0.8" opacity="0.3"/><line x1="185" y1="174.01923788646684" x2="157.49999999999997" y2="126.38784067832273" stroke="#ef5350" stroke-width="0.8" opacity="0.3"/><line x1="205.2094453300079" y1="170.45576740963375" x2="214.76009510168905" y2="116.29134099396231" stroke="#ef5350" stroke-width="0.8" opacity="0.3"/><line x1="222.98133329356932" y1="180.7163717094038" x2="265.1137776651131" y2="145.36305317664414" stroke="#ef5350" stroke-width="0.8" opacity="0.3"/>
    <ellipse cx="200" cy="170" rx="9" ry="22.5" fill="none" stroke="#c62828" stroke-width="1" opacity="0.3" transform="rotate(0 200 200)"/><ellipse cx="200" cy="170" rx="9" ry="22.5" fill="none" stroke="#c62828" stroke-width="1" opacity="0.3" transform="rotate(72 200 200)"/><ellipse cx="200" cy="170" rx="9" ry="22.5" fill="none" stroke="#c62828" stroke-width="1" opacity="0.3" transform="rotate(144 200 200)"/><ellipse cx="200" cy="170" rx="9" ry="22.5" fill="none" stroke="#c62828" stroke-width="1" opacity="0.3" transform="rotate(216 200 200)"/><ellipse cx="200" cy="170" rx="9" ry="22.5" fill="none" stroke="#c62828" stroke-width="1" opacity="0.3" transform="rotate(288 200 200)"/>
    <circle cx="200" cy="200" r="4" fill="#ef5350" opacity="0.9"/>
  </g>
</svg>