<?xml version="1.0" encoding="UTF-8"?>
<svg xmlns="http://www.w3.org/2000/svg" viewBox="0 0 400 400" width="400" height="400">
  <rect width="400" height="400" fill="#0d1b2a"/>
  <defs>
    <radialGradient id="glow-tattva-01" cx="50%" cy="50%"><stop offset="0%" stop-color="#1a237e" stop-opacity="0.15"/><stop offset="100%" stop-color="#0d1b2a" stop-opacity="0"/></radialGradient>
  </defs>
  <g>
    <circle cx="200" cy="200" r="180" fill="url(#glow-tattva-01)"/>
    <circle cx="200" cy="200" r="120" fill="none" stroke="#3949ab" stroke-width="1.5" opacity="0.3"/>
    <circle cx="200" cy="200" r="12" fill="#1a237e" opacity="0.9"/>
    <line x1="220" y1="200" x2="320" y2="200" stroke="#3949ab" stroke-width="0.8" opacity="0.15"/><line x1="219.61570560806462" y1="203.90180644032256" x2="317.69423364838764" y2="223.41083864193538" stroke="#3949ab" stroke-width="0.8" opacity="0.15"/><line x1="218.47759065022575" y1="207.6536686473018" x2="310.8655439013544" y2="245.92201188381077" stroke="#3949ab" stroke-width="0.8" opacity="0.15"/><line x1="216.6293922460509" y1="211.11140466039205" x2="299.7763534763054" y2="266.66842796235227" stroke="#3949ab" stroke-width="0.8" opacity="0.15"/><line x1="214.14213562373095" y1="214.14213562373095" x2="284.8528137423857" y2="284.8528137423857" stroke="#3949ab" stroke-width="0.8" opacity="0.15"/><line x1="211.11140466039205" y1="216.6293922460509" x2="266.66842796235227" y2="299.7763534763054" stroke="#3949ab" stroke-width="0.8" opacity="0.15"/><line x1="207.6536686473018" y1="218.47759065022575" x2="245.9220118838108" y2="310.8655439013544" stroke="#3949ab" stroke-width="0.8" opacity="0.15"/><line x1="203.90180644032256" y1="219.61570560806462" x2="223.4108386419354" y2="317.69423364838764" stroke="#3949ab" stroke-width="0.8" opacity="0.15"/><line x1="200" y1="220" x2="200" y2="320" stroke="#3949ab" stroke-width="0.8" opacity="0.15"/><line x1="196.09819355967744" y1="219.61570560806462" x2="176.58916135806462" y2="317.69423364838764" stroke="#3949ab" stroke-width="0.8" opacity="0.15"/><line x1="192.3463313526982" y1="218.47759065022575" x2="154.07798811618923" y2="310.8655439013544" stroke="#3949ab" stroke-width="0.8" opacity="0.15"/><line x1="188.88859533960795" y1="216.6293922460509" x2="133.33157203764776" y2="299.7763534763054" stroke="#3949ab" stroke-width="0.8" opacity="0.15"/><line x1="185.85786437626905" y1="214.14213562373095" x2="115.14718625761431" y2="284.8528137423857" stroke="#3949ab" stroke-width="0.8" opacity="0.15"/><line x1="183.3706077539491" y1="211.11140466039205" x2="100.22364652369455" y2="266.66842796235227" stroke="#3949ab" stroke-width="0.8" opacity="0.15"/><line x1="181.52240934977425" y1="207.6536686473018" x2="89.13445609864559" y2="245.9220118838108" stroke="#3949ab" stroke-width="0.8" opacity="0.15"/><line x1="180.38429439193538" y1="203.90180644032256" x2="82.30576635161235" y2="223.41083864193544" stroke="#3949ab" stroke-width="0.8" opacity="0.15"/><line x1="180" y1="200" x2="80" y2="200.00000000000003" stroke="#3949ab" stroke-width="0.8" opacity="0.15"/><line x1="180.38429439193538" y1="196.09819355967744" x2="82.30576635161235" y2="176.5891613580646" stroke="#3949ab" stroke-width="0.8" opacity="0.15"/><line x1="181.52240934977425" y1="192.3463313526982" x2="89.13445609864557" y2="154.07798811618923" stroke="#3949ab" stroke-width="0.8" opacity="0.15"/><line x1="183.3706077539491" y1="188.88859533960795" x2="100.22364652369454" y2="133.33157203764776" stroke="#3949ab" stroke-width="0.8" opacity="0.15"/><line x1="185.85786437626905" y1="185.85786437626905" x2="115.14718625761428" y2="115.14718625761431" stroke="#3949ab" stroke-width="0.8" opacity="0.15"/><line x1="188.88859533960795" y1="183.3706077539491" x2="133.33157203764773" y2="100.22364652369457" stroke="#3949ab" stroke-width="0.8" opacity="0.15"/><line x1="192.3463313526982" y1="181.52240934977428" x2="154.07798811618915" y2="89.13445609864561" stroke="#3949ab" stroke-width="0.8" opacity="0.15"/><line x1="196.09819355967744" y1="180.38429439193538" x2="176.58916135806456" y2="82.30576635161236" stroke="#3949ab" stroke-width="0.8" opacity="0.15"/><line x1="200" y1="180" x2="199.99999999999997" y2="80" stroke="#3949ab" stroke-width="0.8" opacity="0.15"/><line x1="203.90180644032256" y1="180.38429439193538" x2="223.41083864193538" y2="82.30576635161235" stroke="#3949ab" stroke-width="0.8" opacity="0.15"/><line x1="207.6536686473018" y1="181.52240934977428" x2="245.9220118838108" y2="89.1344560986456" stroke="#3949ab" stroke-width="0.8" opacity="0.15"/><line x1="211.11140466039203" y1="183.3706077539491" x2="266.6684279623522" y2="100.22364652369454" stroke="#3949ab" stroke-width="0.8" opacity="0.15"/><line x1="214.14213562373095" y1="185.85786437626905" x2="284.8528137423857" y2="115.14718625761428" stroke="#3949ab" stroke-width="0.8" opacity="0.15"/><line x1="216.6293922460509" y1="188.88859533960795" x2="299.7763534763054" y2="133.33157203764773" stroke="#3949ab" stroke-width="0.8" opacity="0.15"/><line x1="218.47759065022572" y1="192.3463313526982" x2="310.8655439013544" y2="154.07798811618915" stroke="#3949ab" stroke-width="0.8" opacity="0.15"/><line x1="219.61570560806462" y1="196.0981935596774" x2="317.69423364838764" y2="176.58916135806456" stroke="#3949ab" stroke-width="0.8" opacity="0.15"/>
  </g>
</svg>