<?xml version="1.0" encoding="UTF-8"?>
<svg xmlns="http://www.w3.org/2000/svg" viewBox="0 0 400 400" width="400" height="400">
  <rect width="400" height="400" fill="#1a1a2e"/>
  <defs>
    <radialGradient id="glow-tattva-26" cx="50%" cy="50%"><stop offset="0%" stop-color="#b0bec5" stop-opacity="0.15"/><stop offset="100%" stop-color="#1a1a2e" stop-opacity="0"/></radialGradient>
  </defs>
  <g>
    <circle cx="200" cy="200" r="180" fill="url(#glow-tattva-26)"/>
    <circle cx="200" cy="200" r="130" fill="none" stroke="#cfd8dc" stroke-width="1.5" opacity="0.15"/>
    <rect x="160" y="160" width="80" height="80" fill="none" stroke="#b0bec5" stroke-width="1.5" opacity="0.4" transform="rotate(45 200 200)"/>
    <line x1="220" y1="200" x2="292" y2="200" stroke="#cfd8dc" stroke-width="0.8" opacity="0.35"/><line x1="216.18033988749895" y1="211.75570504584945" x2="274.42956348249515" y2="254.07624321090753" stroke="#cfd8dc" stroke-width="0.8" opacity="0.35"/><line x1="206.18033988749895" y1="219.02113032590307" x2="228.42956348249515" y2="287.49719949915414" stroke="#cfd8dc" stroke-width="0.8" opacity="0.35"/><line x1="193.81966011250105" y1="219.02113032590307" x2="171.57043651750485" y2="287.49719949915414" stroke="#cfd8dc" stroke-width="0.8" opacity="0.35"/><line x1="183.81966011250105" y1="211.75570504584945" x2="125.57043651750485" y2="254.07624321090753" stroke="#cfd8dc" stroke-width="0.8" opacity="0.35"/><line x1="180" y1="200" x2="108" y2="200" stroke="#cfd8dc" stroke-width="0.8" opacity="0.35"/><line x1="183.81966011250105" y1="188.24429495415055" x2="125.57043651750483" y2="145.92375678909247" stroke="#cfd8dc" stroke-width="0.8" opacity="0.35"/><line x1="193.81966011250105" y1="180.97886967409693" x2="171.57043651750482" y2="112.50280050084588" stroke="#cfd8dc" stroke-width="0.8" opacity="0.35"/><line x1="206.18033988749895" y1="180.97886967409693" x2="228.42956348249515" y2="112.50280050084586" stroke="#cfd8dc" stroke-width="0.8" opacity="0.35"/><line x1="216.18033988749895" y1="188.24429495415052" x2="274.42956348249515" y2="145.92375678909247" stroke="#cfd8dc" stroke-width="0.8" opacity="0.35"/>
    <circle cx="200" cy="200" r="5" fill="#b0bec5" opacity="0.9"/>
  </g>
</svg>