<?xml version="1.0" encoding="UTF-8"?>
<svg xmlns="http://www.w3.org/2000/svg" viewBox="0 0 400 400" width="400" height="400">
  <rect width="400" height="400" fill="#1a1500"/>
  <defs>
    <radialGradient id="glow-tattva-21" cx="50%" cy="50%"><stop offset="0%" stop-color="#f9a825" stop-opacity="0.15"/><stop offset="100%" stop-color="#1a1500" stop-opacity="0"/></radialGradient>
  </defs>
  <g>
    <circle cx="200" cy="200" r="180" fill="url(#glow-tattva-21)"/>
    <circle cx="200" cy="200" r="130" fill="none" stroke="#fdd835" stroke-width="1.5" opacity="0.15"/>
    <circle cx="200" cy="200" r="90" fill="none" stroke="#f9a825" stroke-width="1.5" opacity="0.4"/>
    <line x1="230" y1="200" x2="285" y2="200" stroke="#fdd835" stroke-width="0.8" opacity="0.3"/><line x1="226.5636807695963" y1="213.94169516131305" x2="275.26376218052286" y2="239.5014696237203" stroke="#fdd835" stroke-width="0.8" opacity="0.3"/><line x1="217.04194240193468" y1="224.6895159768097" x2="248.28550347214824" y2="269.95362860096077" stroke="#fdd835" stroke-width="0.8" opacity="0.3"/><line x1="203.6161004076597" y1="229.7812662229416" x2="210.24561782170247" y2="284.3802542983346" stroke="#fdd835" stroke-width="0.8" opacity="0.3"/><line x1="189.36185338872394" y1="228.05048728056244" x2="169.85858460138448" y2="279.47638062826024" stroke="#fdd835" stroke-width="0.8" opacity="0.3"/><line x1="177.54467755486695" y1="219.89367974722387" x2="136.3765864054564" y2="256.36542595046757" stroke="#fdd835" stroke-width="0.8" opacity="0.3"/><line x1="170.87174547721844" y1="207.17946992862673" x2="117.46994551878558" y2="220.3418314644424" stroke="#fdd835" stroke-width="0.8" opacity="0.3"/><line x1="170.87174547721844" y1="192.82053007137327" x2="117.46994551878556" y2="179.65816853555762" stroke="#fdd835" stroke-width="0.8" opacity="0.3"/><line x1="177.54467755486698" y1="180.10632025277613" x2="136.3765864054564" y2="143.6345740495324" stroke="#fdd835" stroke-width="0.8" opacity="0.3"/><line x1="189.36185338872392" y1="171.94951271943756" x2="169.85858460138445" y2="120.52361937173976" stroke="#fdd835" stroke-width="0.8" opacity="0.3"/><line x1="203.6161004076597" y1="170.2187337770584" x2="210.24561782170247" y2="115.61974570166541" stroke="#fdd835" stroke-width="0.8" opacity="0.3"/><line x1="217.04194240193468" y1="175.3104840231903" x2="248.28550347214824" y2="130.04637139903917" stroke="#fdd835" stroke-width="0.8" opacity="0.3"/><line x1="226.5636807695963" y1="186.05830483868695" x2="275.26376218052286" y2="160.4985303762797" stroke="#fdd835" stroke-width="0.8" opacity="0.3"/>
    <ellipse cx="200" cy="170" rx="9" ry="22.5" fill="none" stroke="#f9a825" stroke-width="1" opacity="0.3" transform="rotate(0 200 200)"/><ellipse cx="200" cy="170" rx="9" ry="22.5" fill="none" stroke="#f9a825" stroke-width="1" opacity="0.3" transform="rotate(72 200 200)"/><ellipse cx="200" cy="170" rx="9" ry="22.5" fill="none" stroke="#f9a825" stroke-width="1" opacity="0.3" transform="rotate(144 200 200)"/><ellipse cx="200" cy="170" rx="9" ry="22.5" fill="none" stroke="#f9a825" stroke-width="1" opacity="0.3" transform="rotate(216 200 200)"/><ellipse cx="200" cy="170" rx="9" ry="22.5" fill="none" stroke="#f9a825" stroke-width="1" opacity="0.3" transform="rotate(288 200 200)"/>
    <circle cx="200" cy="200" r="4" fill="#fdd835" opacity="0.9"/>
  </g>
</svg>