<?xml version="1.0" encoding="UTF-8"?>
<svg xmlns="http://www.w3.org/2000/svg" viewBox="0 0 400 400" width="400" height="400">
  <rect width="400" height="400" fill="#1a1a2e"/>
  <defs>
    <radialGradient id="glow-tattva-20" cx="50%" cy="50%"><stop offset="0%" stop-color="#b0bec5" stop-opacity="0.15"/><stop offset="100%" stop-color="#1a1a2e" stop-opacity="0"/></radialGradient>
  </defs>
  <g>
    <circle cx="200" cy="200" r="180" fill="url(#glow-tattva-20)"/>
    <circle cx="200" cy="200" r="130" fill="none" stroke="#cfd8dc" stroke-width="1.5" opacity="0.15"/>
    <circle cx="200" cy="200" r="90" fill="none" stroke="#b0bec5" stroke-width="1.5" opacity="0.4"/>
    <line x1="230" y1="200" x2="285" y2="200" stroke="#cfd8dc" stroke-width="0.8" opacity="0.3"/><line x1="225.23760598493544" y1="216.21922452366792" x2="271.5065502906504" y2="245.9544694837258" stroke="#cfd8dc" stroke-width="0.8" opacity="0.3"/><line x1="212.4624503900566" y1="227.28895986063554" x2="235.31027610516034" y2="277.31871960513405" stroke="#cfd8dc" stroke-width="0.8" opacity="0.3"/><line x1="195.73055485180146" y1="229.69464325642798" x2="187.90323874677077" y2="284.1348225598793" stroke="#cfd8dc" stroke-width="0.8" opacity="0.3"/><line x1="180.35417798164144" y1="222.67248723062775" x2="144.3368376146508" y2="264.23871382011197" stroke="#cfd8dc" stroke-width="0.8" opacity="0.3"/><line x1="171.21521079156508" y1="208.4519767052429" x2="118.44309724276773" y2="223.94726733152154" stroke="#cfd8dc" stroke-width="0.8" opacity="0.3"/><line x1="171.21521079156508" y1="191.54802329475712" x2="118.44309724276772" y2="176.0527326684785" stroke="#cfd8dc" stroke-width="0.8" opacity="0.3"/><line x1="180.35417798164144" y1="177.32751276937225" x2="144.33683761465076" y2="135.76128617988806" stroke="#cfd8dc" stroke-width="0.8" opacity="0.3"/><line x1="195.73055485180146" y1="170.30535674357202" x2="187.90323874677077" y2="115.86517744012072" stroke="#cfd8dc" stroke-width="0.8" opacity="0.3"/><line x1="212.4624503900566" y1="172.71104013936446" x2="235.31027610516037" y2="122.68128039486595" stroke="#cfd8dc" stroke-width="0.8" opacity="0.3"/><line x1="225.2376059849354" y1="183.78077547633205" x2="271.50655029065035" y2="154.04553051627414" stroke="#cfd8dc" stroke-width="0.8" opacity="0.3"/>
    <ellipse cx="200" cy="170" rx="9" ry="22.5" fill="none" stroke="#b0bec5" stroke-width="1" opacity="0.3" transform="rotate(0 200 200)"/><ellipse cx="200" cy="170" rx="9" ry="22.5" fill="none" stroke="#b0bec5" stroke-width="1" opacity="0.3" transform="rotate(72 200 200)"/><ellipse cx="200" cy="170" rx="9" ry="22.5" fill="none" stroke="#b0bec5" stroke-width="1" opacity="0.3" transform="rotate(144 200 200)"/><ellipse cx="200" cy="170" rx="9" ry="22.5" fill="none" stroke="#b0bec5" stroke-width="1" opacity="0.3" transform="rotate(216 200 200)"/><ellipse cx="200" cy="170" rx="9" ry="22.5" fill="none" stroke="#b0bec5" stroke-width="1" opacity="0.3" transform="rotate(288 200 200)"/>
    <circle cx="200" cy="200" r="4" fill="#cfd8dc" opacity="0.9"/>
  </g>
</svg>