<?xml version="1.0" encoding="UTF-8"?>
<svg xmlns="http://www.w3.org/2000/svg" viewBox="0 0 400 400" width="400" height="400">
  <rect width="400" height="400" fill="#1a1a2e"/>
  <defs>
    <radialGradient id="glow-tattva-02" cx="50%" cy="50%"><stop offset="0%" stop-color="#b0bec5" stop-opacity="0.15"/><stop offset="100%" stop-color="#1a1a2e" stop-opacity="0"/></radialGradient>
  </defs>
  <g>
    <circle cx="200" cy="200" r="180" fill="url(#glow-tattva-02)"/>
    <circle cx="200" cy="200" r="108" fill="none" stroke="#cfd8dc" stroke-width="1.5" opacity="0.3"/>
    <ellipse cx="200" cy="146" rx="16.2" ry="40.5" fill="none" stroke="#b0bec5" stroke-width="1" opacity="0.5" transform="rotate(0 200 200)"/><ellipse cx="200" cy="146" rx="16.2" ry="40.5" fill="none" stroke="#b0bec5" stroke-width="1" opacity="0.5" transform="rotate(30 200 200)"/><ellipse cx="200" cy="146" rx="16.2" ry="40.5" fill="none" stroke="#b0bec5" stroke-width="1" opacity="0.5" transform="rotate(60 200 200)"/><ellipse cx="200" cy="146" rx="16.2" ry="40.5" fill="none" stroke="#b0bec5" stroke-width="1" opacity="0.5" transform="rotate(90 200 200)"/><ellipse cx="200" cy="146" rx="16.2" ry="40.5" fill="none" stroke="#b0bec5" stroke-width="1" opacity="0.5" transform="rotate(120 200 200)"/><ellipse cx="200" cy="146" rx="16.2" ry="40.5" fill="none" stroke="#b0bec5" stroke-width="1" opacity="0.5" transform="rotate(150 200 200)"/><ellipse cx="200" cy="146" rx="16.2" ry="40.5" fill="none" stroke="#b0bec5" stroke-width="1" opacity="0.5" transform="rotate(180 200 200)"/><ellipse cx="200" cy="146" rx="16.2" ry="40.5" fill="none" stroke="#b0bec5" stroke-width="1" opacity="0.5" transform="rotate(210 200 200)"/><ellipse cx="200" cy="146" rx="16.2" ry="40.5" fill="none" stroke="#b0bec5" stroke-width="1" opacity="0.5" transform="rotate(240 200 200)"/><ellipse cx="200" cy="146" rx="16.2" ry="40.5" fill="none" stroke="#b0bec5" stroke-width="1" opacity="0.5" transform="rotate(270 200 200)"/><ellipse cx="200" cy="146" rx="16.2" ry="40.5" fill="none" stroke="#b0bec5" stroke-width="1" opacity="0.5" transform="rotate(300 200 200)"/><ellipse cx="200" cy="146" rx="16.2" ry="40.5" fill="none" stroke="#b0bec5" stroke-width="1" opacity="0.5" transform="rotate(330 200 200)"/>
    <circle cx="200" cy="200" r="8" fill="#cfd8dc" opacity="0.9"/>
  </g>
</svg>